<svg width="91" height="34" viewBox="0 0 91 34" fill="none" xmlns="http://www.w3.org/2000/svg">
<path d="M28.68 7.48H31.26L35.32 13L39.7 7.48H42.18L36.5 14.54L42.34 22H39.72L35.22 16.02L30.74 22H28.1L34.08 14.56L28.68 7.48ZM44.1131 22V7.48H55.6531V9.38H46.1731V13.62H55.0731V15.52H46.1731V20.1H55.7931V22H44.1131ZM60.47 7.48V20.1H69.35V22H58.41V7.48H60.47ZM73.5011 7.48V22H71.4411V7.48H73.5011ZM88.7042 11.7H86.6642C86.5976 10.7667 86.2442 10.0867 85.6042 9.66C84.9776 9.22 84.0309 9 82.7642 9C81.5109 9 80.5642 9.2 79.9242 9.6C79.2842 10 78.9642 10.5667 78.9642 11.3C78.9642 11.8733 79.1642 12.3067 79.5642 12.6C79.9642 12.88 80.6242 13.1067 81.5442 13.28L84.7242 13.9C86.3242 14.2067 87.4776 14.6467 88.1842 15.22C88.8909 15.7933 89.2442 16.6667 89.2442 17.84C89.2442 19.2533 88.6976 20.3667 87.6042 21.18C86.5109 21.98 84.9576 22.38 82.9442 22.38C80.7709 22.38 79.1242 21.9333 78.0042 21.04C76.8842 20.1467 76.3242 18.8333 76.3242 17.1H78.5042C78.5842 19.3533 80.1042 20.48 83.0642 20.48C84.3576 20.48 85.3509 20.2667 86.0442 19.84C86.7376 19.4 87.0842 18.7933 87.0842 18.02C87.0842 17.4333 86.8842 16.98 86.4842 16.66C86.0976 16.34 85.4642 16.1067 84.5842 15.96L81.0042 15.32C79.5642 15.0667 78.5042 14.64 77.8242 14.04C77.1442 13.4267 76.8042 12.5733 76.8042 11.48C76.8042 10.1067 77.3242 9.03333 78.3642 8.26C79.4176 7.48667 80.9376 7.1 82.9242 7.1C84.7776 7.1 86.2042 7.5 87.2042 8.3C88.2042 9.1 88.7042 10.2333 88.7042 11.7Z" fill="white"/>
<path fill-rule="evenodd" clip-rule="evenodd" d="M11.1488 25.6728L22.2976 14.524L12.1564 4.38276L13.726 8.1821L20.0678 14.524L11.1488 23.443L2.22976 14.524L8.58594 8.07845L10.147 4.37695L0 14.524L11.1488 25.6728Z" fill="white"/>
<path d="M11.1488 23.443L10.147 4.37695L8.58594 8.07845L11.1488 23.443Z" fill="white"/>
<path d="M12.1564 4.38276L11.1488 23.443L13.726 8.1821L12.1564 4.38276Z" fill="white"/>
</svg>
